@startuml
'https://plantuml.com/class-diagram

'abstract class AbstractList
'abstract AbstractCollection
'interface List
'interface Collection
'
'List <|-- AbstractList
'Collection <|-- AbstractCollection
'
'Collection <|- List
'AbstractCollection <|- AbstractList
'AbstractList <|-- ArrayList
'
'class ArrayList {
'Object[] elementData
'size()
'}
'
'enum TimeUnit {
'DAYS
'HOURS
'MINUTES
'}

class Rezept{
Map <Zutat, Menge>
String zubereitung
}

Zutat <|- Rezept

class Zutat

class RezeptRepository

RezeptRepository <|- RezeptService

class RezeptService

class Kuehlschrank

class KuehlschrankService

KuehlschrankRepository <|- KuehlschrankService

class KuehlschrankRepository

class Benutzer

class BenutzerService

class BenutzerRepository

BenutzerRepository <|- BenutzerService

@enduml